<svg width="51" height="138" viewBox="0 0 51 138" fill="none" xmlns="http://www.w3.org/2000/svg">
<path d="M30.08 88.128C30.016 88.384 30.016 88.704 30.016 89.024C29.952 89.344 29.952 89.664 29.952 89.984C29.952 90.368 30.144 90.56 30.528 90.56C30.848 90.56 31.232 90.496 31.488 90.496C34.56 90.24 37.568 90.496 40.512 91.264C43.52 92.096 45.76 93.888 47.36 96.512C47.744 97.728 47.36 98.56 46.272 99.136C45.632 99.392 44.992 99.648 44.288 99.776C43.264 100.096 42.176 100.352 41.088 100.416C38.208 100.416 35.52 100.928 32.96 101.952C32.832 102.08 32.64 102.208 32.512 102.272C32.64 102.4 32.832 102.4 33.024 102.336C33.728 102.208 34.432 102.016 35.2 101.824C35.52 101.824 35.84 101.76 36.224 101.76C36.544 101.76 36.864 101.888 37.12 102.144C38.528 103.168 39.872 104.256 41.088 105.536C41.984 106.56 41.792 107.328 40.448 107.712C38.912 108.352 37.504 108.928 36.032 109.568C35.136 109.952 34.24 110.4 33.344 110.784C31.68 111.616 30.08 112.512 28.48 113.408C27.456 113.984 26.432 114.496 25.472 115.008C25.344 115.136 25.216 115.2 25.088 115.328C25.216 115.392 25.344 115.392 25.472 115.392C26.816 115.52 28.16 115.52 29.504 115.52C30.144 115.712 30.656 116.032 31.104 116.416C31.552 116.864 31.808 117.44 31.872 118.016C31.872 118.272 31.808 118.464 31.68 118.656C31.168 119.808 30.592 121.024 30.016 122.24C29.056 124.16 28.16 126.144 27.328 128.192C26.944 128.768 27.136 128.96 27.776 128.832C31.936 128.832 36.096 129.28 40.128 130.112C42.368 130.496 44.416 131.392 46.208 132.672C46.592 132.928 46.912 133.312 47.104 133.696C47.296 134.144 47.488 134.592 47.68 135.04C47.488 135.36 47.296 135.552 46.912 135.68C46.4 135.68 45.888 135.552 45.504 135.36C41.664 133.504 37.632 132.544 33.344 132.544C29.824 132.608 26.304 132.736 22.784 132.928C20.672 132.928 18.624 133.504 16.704 134.592C15.168 135.424 13.568 136.192 11.84 136.768C11.2 137.088 10.496 137.152 9.85601 137.024C9.15201 136.896 8.44801 136.768 7.80801 136.512C7.04001 136.192 6.27201 135.872 5.44001 135.616C5.24801 135.488 4.99201 135.36 4.73601 135.296L5.24801 134.784C7.29601 133.76 9.34401 132.8 11.456 131.84C13.504 130.816 15.744 130.176 18.048 129.92C18.496 129.856 18.88 129.664 19.2 129.408C21.184 127.808 22.336 125.696 22.592 123.072V122.88L22.848 120.96C22.272 121.216 21.76 121.408 21.248 121.472C19.008 121.792 16.768 122.048 14.528 122.368C14.08 122.496 13.568 122.624 13.12 122.688C12.736 122.56 12.416 122.304 12.16 121.984C11.968 121.664 11.84 121.28 11.776 120.96C11.392 119.872 11.776 119.168 12.8 118.848C13.824 118.592 14.656 118.208 15.424 117.632C19.392 115.008 23.296 112.256 27.072 109.568C28.416 108.608 29.696 107.52 30.912 106.368C31.232 106.112 31.232 105.92 30.912 105.728C29.952 104.96 28.992 104.064 28.16 103.168C27.2 102.08 26.816 100.8 27.008 99.328C27.136 98.688 27.456 98.24 28.096 98.048C28.672 97.856 29.184 98.048 29.632 98.56L29.76 99.008C30.272 99.968 30.784 100.864 31.296 101.76C31.616 101.888 31.872 101.888 32.192 101.76C35.456 100.224 38.4 98.048 40.896 95.36C41.216 95.04 41.152 94.848 40.768 94.656C39.296 94.144 37.76 93.632 36.224 93.312C34.496 92.928 32.768 92.928 30.976 93.12C29.248 93.376 27.52 93.76 25.856 94.336C24.256 94.72 22.656 95.04 21.056 95.36C19.584 95.68 18.176 96.128 16.832 96.704C15.616 97.088 14.528 97.408 13.376 97.728C13.312 97.792 13.184 97.792 12.992 97.728C13.056 97.6 13.184 97.472 13.312 97.408C14.08 96.704 14.848 96.128 15.744 95.68L20.48 93.312C20.8 93.184 20.928 92.992 20.736 92.736C20.8 92.672 20.8 92.544 20.864 92.416C21.184 91.968 21.504 91.648 21.824 91.328C22.528 90.368 22.912 89.28 22.912 88.128C22.912 86.912 22.592 85.824 21.952 84.864C21.696 84.544 21.44 84.16 21.248 83.776C20.864 83.136 20.992 82.624 21.696 82.24C23.36 81.088 25.024 81.216 26.56 82.624C27.648 83.52 28.608 84.544 29.44 85.632C29.824 86.4 30.08 87.168 30.272 88.064C30.208 88.064 30.144 88.128 30.08 88.128ZM12.032 114.944C11.2 114.88 10.496 114.624 9.85601 114.112C9.21601 113.6 8.76801 112.96 8.64001 112.192C8.64001 111.872 8.70401 111.616 8.89601 111.36C11.456 108.352 14.016 105.344 16.512 102.336C16.704 102.208 16.96 102.144 17.152 102.016C17.28 102.272 17.28 102.528 17.28 102.848C17.152 103.616 16.96 104.448 16.704 105.216C16.448 105.984 16.32 106.752 16.32 107.584C16.32 108.224 16.128 108.8 15.808 109.312C15.424 109.76 15.104 110.336 14.848 110.848C14.464 112 13.824 113.088 12.992 114.112C12.736 114.432 12.416 114.752 12.032 114.944ZM9.47201 97.728C9.21601 99.2 9.02401 100.736 8.89601 102.208C8.70401 104.576 8.57601 107.008 8.44801 109.44C8.44801 110.144 8.12801 110.4 7.42401 110.272C6.72001 109.888 6.01601 109.504 5.37601 109.12C5.31201 108.992 5.18401 108.8 5.12001 108.672C3.96801 107.648 3.84001 106.432 4.67201 105.088C5.76001 102.656 6.97601 100.352 8.25601 98.048C8.25601 97.856 8.38401 97.664 8.64001 97.6C8.76801 97.408 9.02401 97.28 9.21601 97.28C9.34401 97.472 9.40801 97.6 9.47201 97.728Z" fill="white"/>
<path d="M27.776 42.88C27.968 45.184 28.288 47.424 28.608 49.664C28.864 52.032 28.288 54.144 26.816 56.064C26.624 56.384 26.496 56.704 26.368 57.024C25.6 58.432 24.512 58.624 23.168 57.664C21.952 56.704 20.736 55.808 19.456 54.912C17.216 53.44 15.296 51.648 13.568 49.536C13.248 49.088 12.864 48.96 12.352 49.216C10.816 49.984 9.28 50.624 7.68 51.136C6.912 51.456 6.144 51.648 5.312 51.712C4.672 51.84 4.032 52.032 3.392 52.288C3.2 52.352 3.072 52.352 3.008 52.416C3.072 52.288 3.136 52.16 3.2 51.968C3.776 51.52 4.352 51.072 4.992 50.624C8.192 48.704 11.136 46.592 13.888 44.224C16.64 41.856 19.264 39.36 21.76 36.672C21.888 36.608 21.952 36.416 22.08 36.224H21.504C16.896 37.824 12.288 39.296 7.68 40.704C5.696 41.408 3.776 41.472 1.728 41.024L0.64 40.768C0.384 40.704 0.192 40.576 0 40.32C0.192 40.128 0.384 39.872 0.64 39.744C1.984 39.36 3.328 39.04 4.672 38.592C7.808 37.568 10.944 36.544 14.016 35.52C17.152 34.496 20.288 33.472 23.424 32.448C23.744 32.384 23.936 32.192 24 32C23.936 31.488 23.872 30.976 23.68 30.528C23.616 30.528 23.616 30.528 23.616 30.464C22.72 30.144 22.464 29.568 22.656 28.736C23.296 27.84 24.128 27.584 25.088 27.968C25.472 28.288 25.92 28.544 26.368 28.736C27.2 29.248 27.904 29.888 28.544 30.656C28.992 31.424 29.696 31.744 30.528 31.68C35.264 31.424 40 31.36 44.672 31.424C45.696 31.68 46.656 32.128 47.488 32.832C48.192 33.472 48.768 34.176 49.216 34.944C49.344 35.328 49.344 35.648 49.152 35.968C48.832 36.224 48.512 36.288 48.128 36.16C46.528 35.648 44.928 35.264 43.328 35.008C41.728 34.816 40.128 34.688 38.464 34.688C35.456 34.56 32.512 34.56 29.504 34.752C29.184 34.816 28.928 34.944 28.736 35.2C28.352 37.76 28.032 40.32 27.776 42.88ZM24.576 49.536C24.256 46.848 24 44.16 23.808 41.472C23.744 41.28 23.744 41.088 23.68 40.896L23.168 41.152C22.976 41.344 22.784 41.6 22.528 41.856C21.312 43.072 19.968 44.288 18.56 45.44C17.216 46.592 15.68 47.552 14.08 48.256C13.44 48.512 13.376 48.896 13.952 49.344C16 51.328 18.368 52.608 21.184 53.184C22.72 53.504 23.744 52.928 24.192 51.392C24.384 50.816 24.512 50.176 24.576 49.536ZM16.512 0C17.856 0.192001 18.752 0.832001 19.328 1.984C19.84 3.136 19.776 4.288 19.136 5.44C18.816 6.144 18.496 6.784 18.176 7.424C18.048 7.808 18.112 8.064 18.56 8.064C19.84 8.192 21.056 8.576 22.208 9.216C23.296 9.92 24.064 10.88 24.512 12.096C24.64 12.864 24.64 13.632 24.512 14.4C24.448 14.976 24.32 15.552 24.192 16.128C23.296 20.032 22.016 23.872 20.288 27.52C19.968 28.16 19.584 28.736 19.136 29.312C18.688 29.824 18.048 30.208 17.344 30.336C16.64 30.464 15.872 30.464 15.104 30.208C13.76 29.568 12.736 28.608 11.968 27.264C11.84 27.136 11.776 26.944 11.648 26.752C11.456 26.368 11.2 26.048 10.816 25.6C10.496 25.216 10.112 25.152 9.664 25.408C9.216 25.6 8.832 25.856 8.512 26.112C7.424 26.752 6.464 27.52 5.44 28.288C5.312 28.288 5.184 28.288 5.12 28.352C5.12 28.224 5.12 28.096 5.184 27.968C7.232 23.616 9.28 19.264 11.328 14.912C11.392 14.784 11.456 14.592 11.456 14.4C11.264 14.528 11.072 14.656 10.88 14.72C9.216 15.488 7.552 16.192 5.888 16.832C5.312 16.96 4.672 16.96 4.032 16.832C3.904 16.832 3.84 16.768 3.776 16.704C3.776 16.64 3.84 16.576 3.904 16.448C5.632 15.872 7.232 14.976 8.64 13.888C10.048 12.8 11.456 11.712 12.928 10.752C13.12 10.56 13.248 10.368 13.376 10.176C14.144 7.68 14.976 5.12 15.744 2.56C15.808 2.304 15.808 1.984 15.744 1.664C15.616 1.472 15.488 1.28 15.424 1.088C15.36 0.959999 15.36 0.832001 15.36 0.703999C15.68 0.448002 16.064 0.192001 16.512 0ZM21.248 12.672C21.184 12.352 21.184 12.096 21.184 11.84C21.12 11.584 21.056 11.392 20.864 11.2C20.224 10.432 19.392 10.176 18.432 10.496C18.048 10.56 17.792 10.816 17.6 11.2C17.216 12.16 16.832 13.056 16.512 13.952C15.872 15.68 15.104 17.28 14.144 18.816C13.184 20.352 12.224 21.888 11.328 23.488C11.008 23.744 10.944 24.064 11.008 24.384C11.328 24.896 11.712 25.344 12.16 25.792C12.672 26.176 13.184 26.432 13.824 26.56C14.656 26.624 15.36 26.432 16 25.92C16.64 25.472 17.152 24.896 17.536 24.192C19.584 20.672 20.8 16.768 21.248 12.672ZM26.368 19.264C26.496 17.984 26.688 16.64 26.944 15.296C27.008 14.656 27.2 14.08 27.584 13.568C27.84 13.376 28.096 13.12 28.352 12.928C28.48 13.184 28.608 13.504 28.736 13.696C29.056 14.336 29.312 14.912 29.568 15.488C29.696 15.616 29.76 15.808 29.824 16C29.952 15.872 30.08 15.68 30.144 15.488C31.488 12.736 33.344 10.432 35.712 8.448C37.248 7.04 39.104 6.4 41.152 6.656C43.264 6.848 45.056 7.744 46.528 9.216C47.232 10.112 47.808 11.136 48.256 12.16C48.64 13.312 48.256 14.016 47.104 14.272C45.376 14.976 43.904 16 42.688 17.472C41.408 18.88 40.192 20.224 38.976 21.632C38.848 21.952 38.72 22.208 38.528 22.4C38.848 22.4 39.104 22.4 39.36 22.336L41.856 21.568C42.048 21.568 42.176 21.632 42.368 21.632C43.008 22.208 43.712 22.784 44.352 23.36C44.672 23.552 44.864 23.872 45.056 24.192C45.184 24.768 44.928 25.088 44.352 25.152C42.56 25.536 40.704 25.792 38.848 25.92C36.736 25.856 35.136 24.896 34.24 22.976C34.048 22.4 34.112 21.824 34.304 21.248C34.88 20.096 35.584 19.072 36.48 18.112C37.312 17.216 38.208 16.256 39.04 15.296C40.256 13.632 41.408 12.032 42.56 10.496C42.944 10.048 42.88 9.728 42.368 9.408C41.984 9.152 41.536 8.896 41.152 8.512C40 7.424 38.656 7.296 37.184 8.064C35.584 8.832 34.368 10.048 33.6 11.712C32.96 13.248 32.256 14.784 31.488 16.32C30.976 17.216 30.784 18.112 31.04 19.072C31.104 19.328 31.104 19.52 31.104 19.648C31.104 21.632 31.488 23.424 32.448 25.152C32.576 25.664 32.64 26.176 32.576 26.752C32.192 26.752 31.808 26.752 31.424 26.752C30.976 26.752 30.592 26.688 30.272 26.56C28.992 25.728 27.968 24.704 27.2 23.488C26.368 22.208 26.112 20.8 26.368 19.264ZM49.664 51.584C47.296 51.584 45.056 50.944 43.136 49.6C38.528 46.592 34.304 43.136 30.528 39.168C30.208 38.784 29.952 38.4 29.76 37.888C30.272 37.888 30.72 38.016 31.168 38.144C33.6 39.488 35.968 40.832 38.272 42.24C40.064 43.392 41.92 44.544 43.776 45.632C44.352 46.016 44.992 46.272 45.696 46.336C47.936 46.848 49.6 48.128 50.688 50.24C51.072 51.2 50.752 51.648 49.664 51.584Z" fill="white"/>
</svg>
